<?xml version="1.0" encoding="UTF-8" standalone="no"?>
<!-- Generated by IcoMoon.io -->

<svg
   xmlns:dc="http://purl.org/dc/elements/1.1/"
   xmlns:cc="http://creativecommons.org/ns#"
   xmlns:rdf="http://www.w3.org/1999/02/22-rdf-syntax-ns#"
   xmlns:svg="http://www.w3.org/2000/svg"
   xmlns="http://www.w3.org/2000/svg"
   xmlns:sodipodi="http://sodipodi.sourceforge.net/DTD/sodipodi-0.dtd"
   xmlns:inkscape="http://www.inkscape.org/namespaces/inkscape"
   version="1.1"
   width="150.73305"
   height="303.72882"
   viewBox="0 0 150.73305 303.72882"
   id="svg840"
   sodipodi:docname="logo.svg"
   inkscape:version="0.92.4 (5da689c313, 2019-01-14)"
   inkscape:export-filename="D:\vue-portfolio\my-bills\public\img\icons\favicon-32x32.png"
   inkscape:export-xdpi="6.9200001"
   inkscape:export-ydpi="6.9200001">
  <metadata
     id="metadata846">
    <rdf:RDF>
      <cc:Work
         rdf:about="">
        <dc:format>image/svg+xml</dc:format>
        <dc:type
           rdf:resource="http://purl.org/dc/dcmitype/StillImage" />
        <dc:title></dc:title>
      </cc:Work>
    </rdf:RDF>
  </metadata>
  <defs
     id="defs844" />
  <sodipodi:namedview
     pagecolor="#ffffff"
     bordercolor="#666666"
     borderopacity="1"
     objecttolerance="10"
     gridtolerance="10"
     guidetolerance="10"
     inkscape:pageopacity="0"
     inkscape:pageshadow="2"
     inkscape:window-width="2560"
     inkscape:window-height="1017"
     id="namedview842"
     showgrid="false"
     fit-margin-top="0"
     fit-margin-left="0"
     fit-margin-right="0"
     fit-margin-bottom="0"
     inkscape:zoom="0.4609375"
     inkscape:cx="-1087.9644"
     inkscape:cy="151.86434"
     inkscape:window-x="-8"
     inkscape:window-y="-8"
     inkscape:window-maximized="1"
     inkscape:current-layer="svg840" />
  <g
     id="g836"
     transform="translate(-181.11691,-104.1356)" />
  <path
     style="fill:#ffffff;fill-opacity:1;stroke:none;stroke-width:2.64027119;stroke-miterlimit:4;stroke-dasharray:none;stroke-opacity:1"
     d="m 57.940325,285.83051 -0.63011,-17.8983 -14.49181,-1.60061 c -13.32242,-1.47144 -33.0742603,-7.47077 -40.7335803,-12.37222 -2.72107996,-1.7413 -2.75442996,-3.61439 -0.24126,-13.54932 1.60399,-6.34079 3.71856,-13.68747 4.69905,-16.32597 l 1.7827,-4.79724 9.4418003,4.17655 c 46.0883,20.38704 88.356655,10.98331 88.356655,-19.65731 0,-16.9493 -12.094945,-27.85001 -44.248925,-39.87987 -30.77289,-11.51314 -51.9563403,-28.23343 -57.6581503,-45.51009 -1.52713,-4.62724 -2.34139,-14.92826 -1.88869,-23.893154 0.65125,-12.89655 1.98185,-17.67749 7.32533,-26.32036 8.4628003,-13.68826 22.1049003,-23.94315 38.1068603,-28.64528 l 12.79824,-3.76073 0.003,-17.8983 L 60.564435,0 h 15.18644 15.18644 v 17.355933 17.355933 h 6.62258 c 9.428295,0 35.541495,6.21859 40.095045,9.54822 3.67324,2.68595 3.66938,3.44334 -0.0884,17.32565 -2.16125,7.98431 -4.51236,14.87712 -5.22469,15.31737 -0.71234,0.44024 -8.12316,-1.52545 -16.4685,-4.3682 -10.40085,-3.54295 -20.142455,-5.18627 -30.971835,-5.22466 -25.35453,-0.0899 -36.99244,7.19362 -38.92763,24.36261 -1.84456,16.364834 3.49843,20.546754 58.383425,45.696354 18.79641,8.61297 34.62749,21.99028 41.42924,35.00786 6.54304,12.52243 6.60557,39.51277 0.12416,53.58921 -8.34347,18.1205 -30.38611,34.93738 -49.956735,38.11326 l -7.18616,1.16614 v 19.24157 19.24157 h -15.09871 -15.0987 z"
     id="path1391"
     inkscape:connector-curvature="0"
     inkscape:export-filename="C:\Users\Richard M. Guckert\Desktop\path1391.png"
     inkscape:export-xdpi="6"
     inkscape:export-ydpi="6" />
</svg>
